<svg xmlns="http://www.w3.org/2000/svg" width="480" height="300" viewBox="0 0 480 300"><rect width="480" height="300" fill="white"/><rect x="0" y="0" width="30" height="30" fill="#ffffff"/><rect x="30" y="0" width="30" height="30" fill="#d7d7d7"/><rect x="60" y="0" width="30" height="30" fill="#ffffff"/><rect x="90" y="0" width="30" height="30" fill="#d7d7d7"/><rect x="120" y="0" width="30" height="30" fill="#ffffff"/><rect x="150" y="0" width="30" height="30" fill="#d7d7d7"/><rect x="180" y="0" width="30" height="30" fill="#ffffff"/><rect x="210" y="0" width="30" height="30" fill="#d7d7d7"/><rect x="240" y="0" width="30" height="30" fill="#ffffff"/><rect x="270" y="0" width="30" height="30" fill="#d7d7d7"/><rect x="300" y="0" width="30" height="30" fill="#ffffff"/><rect x="330" y="0" width="30" height="30" fill="#d7d7d7"/><rect x="360" y="0" width="30" height="30" fill="#ffffff"/><rect x="390" y="0" width="30" height="30" fill="#d7d7d7"/><rect x="420" y="0" width="30" height="30" fill="#ffffff"/><rect x="450" y="0" width="30" height="30" fill="#d7d7d7"/><rect x="0" y="30" width="30" height="30" fill="#d7d7d7"/><rect x="30" y="30" width="30" height="30" fill="#8bbfe5"/><rect x="60" y="30" width="30" height="30" fill="#d7d7d7"/><rect x="90" y="30" width="30" height="30" fill="#8bbfe5"/><rect x="120" y="30" width="30" height="30" fill="#d7d7d7"/><rect x="150" y="30" width="30" height="30" fill="#8bbfe5"/><rect x="180" y="30" width="30" height="30" fill="#d7d7d7"/><rect x="210" y="30" width="30" height="30" fill="#8bbfe5"/><rect x="240" y="30" width="30" height="30" fill="#d7d7d7"/><rect x="270" y="30" width="30" height="30" fill="#8bbfe5"/><rect x="300" y="30" width="30" height="30" fill="#d7d7d7"/><rect x="330" y="30" width="30" height="30" fill="#8bbfe5"/><rect x="360" y="30" width="30" height="30" fill="#d7d7d7"/><rect x="390" y="30" width="30" height="30" fill="#8bbfe5"/><rect x="420" y="30" width="30" height="30" fill="#d7d7d7"/><rect x="450" y="30" width="30" height="30" fill="#8bbfe5"/><rect x="0" y="60" width="30" height="30" fill="#ffffff"/><rect x="30" y="60" width="30" height="30" fill="#d7d7d7"/><rect x="60" y="60" width="30" height="30" fill="#ffffff"/><rect x="90" y="60" width="30" height="30" fill="#d7d7d7"/><rect x="120" y="60" width="30" height="30" fill="#ffffff"/><rect x="150" y="60" width="30" height="30" fill="#d7d7d7"/><rect x="180" y="60" width="30" height="30" fill="#ffffff"/><rect x="210" y="60" width="30" height="30" fill="#d7d7d7"/><rect x="240" y="60" width="30" height="30" fill="#ffffff"/><rect x="270" y="60" width="30" height="30" fill="#d7d7d7"/><rect x="300" y="60" width="30" height="30" fill="#ffffff"/><rect x="330" y="60" width="30" height="30" fill="#d7d7d7"/><rect x="360" y="60" width="30" height="30" fill="#ffffff"/><rect x="390" y="60" width="30" height="30" fill="#d7d7d7"/><rect x="420" y="60" width="30" height="30" fill="#ffffff"/><rect x="450" y="60" width="30" height="30" fill="#d7d7d7"/><rect x="0" y="90" width="30" height="30" fill="#d7d7d7"/><rect x="30" y="90" width="30" height="30" fill="#8bbfe5"/><rect x="60" y="90" width="30" height="30" fill="#d7d7d7"/><rect x="90" y="90" width="30" height="30" fill="#8bbfe5"/><rect x="120" y="90" width="30" height="30" fill="#d7d7d7"/><rect x="150" y="90" width="30" height="30" fill="#8bbfe5"/><rect x="180" y="90" width="30" height="30" fill="#d7d7d7"/><rect x="210" y="90" width="30" height="30" fill="#8bbfe5"/><rect x="240" y="90" width="30" height="30" fill="#d7d7d7"/><rect x="270" y="90" width="30" height="30" fill="#8bbfe5"/><rect x="300" y="90" width="30" height="30" fill="#d7d7d7"/><rect x="330" y="90" width="30" height="30" fill="#8bbfe5"/><rect x="360" y="90" width="30" height="30" fill="#d7d7d7"/><rect x="390" y="90" width="30" height="30" fill="#8bbfe5"/><rect x="420" y="90" width="30" height="30" fill="#d7d7d7"/><rect x="450" y="90" width="30" height="30" fill="#8bbfe5"/><rect x="0" y="120" width="30" height="30" fill="#ffffff"/><rect x="30" y="120" width="30" height="30" fill="#d7d7d7"/><rect x="60" y="120" width="30" height="30" fill="#ffffff"/><rect x="90" y="120" width="30" height="30" fill="#d7d7d7"/><rect x="120" y="120" width="30" height="30" fill="#ffffff"/><rect x="150" y="120" width="30" height="30" fill="#d7d7d7"/><rect x="180" y="120" width="30" height="30" fill="#ffffff"/><rect x="210" y="120" width="30" height="30" fill="#d7d7d7"/><rect x="240" y="120" width="30" height="30" fill="#ffffff"/><rect x="270" y="120" width="30" height="30" fill="#d7d7d7"/><rect x="300" y="120" width="30" height="30" fill="#ffffff"/><rect x="330" y="120" width="30" height="30" fill="#d7d7d7"/><rect x="360" y="120" width="30" height="30" fill="#ffffff"/><rect x="390" y="120" width="30" height="30" fill="#d7d7d7"/><rect x="420" y="120" width="30" height="30" fill="#ffffff"/><rect x="450" y="120" width="30" height="30" fill="#d7d7d7"/><rect x="0" y="150" width="30" height="30" fill="#d7d7d7"/><rect x="30" y="150" width="30" height="30" fill="#8bbfe5"/><rect x="60" y="150" width="30" height="30" fill="#d7d7d7"/><rect x="90" y="150" width="30" height="30" fill="#8bbfe5"/><rect x="120" y="150" width="30" height="30" fill="#d7d7d7"/><rect x="150" y="150" width="30" height="30" fill="#8bbfe5"/><rect x="180" y="150" width="30" height="30" fill="#d7d7d7"/><rect x="210" y="150" width="30" height="30" fill="#8bbfe5"/><rect x="240" y="150" width="30" height="30" fill="#d7d7d7"/><rect x="270" y="150" width="30" height="30" fill="#8bbfe5"/><rect x="300" y="150" width="30" height="30" fill="#d7d7d7"/><rect x="330" y="150" width="30" height="30" fill="#8bbfe5"/><rect x="360" y="150" width="30" height="30" fill="#d7d7d7"/><rect x="390" y="150" width="30" height="30" fill="#8bbfe5"/><rect x="420" y="150" width="30" height="30" fill="#d7d7d7"/><rect x="450" y="150" width="30" height="30" fill="#8bbfe5"/><rect x="0" y="180" width="30" height="30" fill="#ffffff"/><rect x="30" y="180" width="30" height="30" fill="#d7d7d7"/><rect x="60" y="180" width="30" height="30" fill="#ffffff"/><rect x="90" y="180" width="30" height="30" fill="#d7d7d7"/><rect x="120" y="180" width="30" height="30" fill="#ffffff"/><rect x="150" y="180" width="30" height="30" fill="#d7d7d7"/><rect x="180" y="180" width="30" height="30" fill="#ffffff"/><rect x="210" y="180" width="30" height="30" fill="#d7d7d7"/><rect x="240" y="180" width="30" height="30" fill="#ffffff"/><rect x="270" y="180" width="30" height="30" fill="#d7d7d7"/><rect x="300" y="180" width="30" height="30" fill="#ffffff"/><rect x="330" y="180" width="30" height="30" fill="#d7d7d7"/><rect x="360" y="180" width="30" height="30" fill="#ffffff"/><rect x="390" y="180" width="30" height="30" fill="#d7d7d7"/><rect x="420" y="180" width="30" height="30" fill="#ffffff"/><rect x="450" y="180" width="30" height="30" fill="#d7d7d7"/><rect x="0" y="210" width="30" height="30" fill="#d7d7d7"/><rect x="30" y="210" width="30" height="30" fill="#8bbfe5"/><rect x="60" y="210" width="30" height="30" fill="#d7d7d7"/><rect x="90" y="210" width="30" height="30" fill="#8bbfe5"/><rect x="120" y="210" width="30" height="30" fill="#d7d7d7"/><rect x="150" y="210" width="30" height="30" fill="#8bbfe5"/><rect x="180" y="210" width="30" height="30" fill="#d7d7d7"/><rect x="210" y="210" width="30" height="30" fill="#8bbfe5"/><rect x="240" y="210" width="30" height="30" fill="#d7d7d7"/><rect x="270" y="210" width="30" height="30" fill="#8bbfe5"/><rect x="300" y="210" width="30" height="30" fill="#d7d7d7"/><rect x="330" y="210" width="30" height="30" fill="#8bbfe5"/><rect x="360" y="210" width="30" height="30" fill="#d7d7d7"/><rect x="390" y="210" width="30" height="30" fill="#8bbfe5"/><rect x="420" y="210" width="30" height="30" fill="#d7d7d7"/><rect x="450" y="210" width="30" height="30" fill="#8bbfe5"/><rect y="240" width="480" height="60" fill="#f5f5f5"/><text x="240" y="279" text-anchor="middle" font-size="24" fill="#222" font-family="sans-serif">浅蓝白方格</text></svg>